<?xml version="1.0" encoding="UTF-8" standalone="no"?>
<svg
   xmlns:dc="http://purl.org/dc/elements/1.1/"
   xmlns:cc="http://creativecommons.org/ns#"
   xmlns:rdf="http://www.w3.org/1999/02/22-rdf-syntax-ns#"
   xmlns:svg="http://www.w3.org/2000/svg"
   xmlns="http://www.w3.org/2000/svg"
   xmlns:sodipodi="http://sodipodi.sourceforge.net/DTD/sodipodi-0.dtd"
   xmlns:inkscape="http://www.inkscape.org/namespaces/inkscape"
   id="Layer_4"
   data-name="Layer 4"
   viewBox="0 0 800 400"
   version="1.1"
   sodipodi:docname="Classes_combined_xform.svg"
   width="800"
   height="400"
   inkscape:version="0.92.2 (5c3e80d, 2017-08-06)">
  <metadata
     id="metadata3727">
    <rdf:RDF>
      <cc:Work
         rdf:about="">
        <dc:format>image/svg+xml</dc:format>
        <dc:type
           rdf:resource="http://purl.org/dc/dcmitype/StillImage" />
        <dc:title>Artboard 1</dc:title>
      </cc:Work>
    </rdf:RDF>
  </metadata>
  <sodipodi:namedview
     pagecolor="#ffffff"
     bordercolor="#666666"
     borderopacity="1"
     objecttolerance="10"
     gridtolerance="10"
     guidetolerance="10"
     inkscape:pageopacity="0"
     inkscape:pageshadow="2"
     inkscape:window-width="1918"
     inkscape:window-height="2054"
     id="namedview3725"
     showgrid="false"
     inkscape:zoom="1.843"
     inkscape:cx="439.43853"
     inkscape:cy="217.06181"
     inkscape:window-x="1910"
     inkscape:window-y="0"
     inkscape:window-maximized="0"
     inkscape:current-layer="Layer_4" />
  <defs
     id="defs3716">
    <style
       id="style3714">.cls-1{fill:#1e1b1c;}.cls-2{fill:#fff;}</style>
  </defs>
  <title
     id="title3718">Artboard 1</title>
  <path
     class="cls-1"
     d="m 621.45186,60.024949 a 2.2265663,2.2265663 0 0 1 -2.08577,2.217948 l -4.72032,0.545868 a 26.198785,26.198785 0 0 1 0.27292,3.763617 25.8569,25.8569 0 0 1 -51.62183,2.169106 l -2.80117,0.324646 c -0.11778,0 -0.23558,0 -0.35044,0 a 5.5621067,5.5621067 0 1 1 0.26428,-11.118465 h 2.79546 l 4.70009,-15.275684 A 80.018489,80.018489 0 0 1 597.31309,2.8409812 l 7.00435,-5.0047502 a 1.2526231,1.2526231 0 0 1 1.98231,1.0199138 V 19.685316 a 2.58569,2.58569 0 0 1 -2.58571,2.585688 h -10.34269 l 11.6327,3.875661 a 2.58569,2.58569 0 0 1 1.67207,1.746776 l 8.21102,29.910689 h 4.3411 a 2.2236933,2.2236933 0 0 1 2.22362,2.220819 z"
     id="path3803"
     inkscape:connector-curvature="0"
     style="fill:#66c2a5;stroke:#000000;stroke-width:2.8729887px" />
  <path
     class="cls-1"
     d="m 126.79284,34.053276 a 25.8569,25.8569 0 1 1 -25.85692,25.8569 25.8569,25.8569 0 0 1 25.85692,-25.8569 z"
     id="path3720"
     inkscape:connector-curvature="0"
     style="fill:#9e0142;stroke:#000000;stroke-width:2.8729887px" />
  <path
     class="cls-2"
     d="m 678.09966,63.188743 a 24.995015,24.995015 0 0 0 49.99003,0 h 1.72376 a 26.718796,26.718796 0 0 1 -53.43755,0 z"
     id="path8"
     inkscape:connector-curvature="0"
     style="fill:#ffffff;stroke-width:0.28729892" />
  <path
     class="cls-1"
     d="m 679.94311,66.943105 a 9.141851,9.141851 0 0 1 7.37492,2.617298 l -0.95098,-9.015442 z m -1.43656,15.698012 c 2.29844,0.818802 5.80351,0.649299 8.09323,-2.516738 a 7.0474414,7.0474414 0 0 0 1.30435,-4.884081 6.926776,6.926776 0 0 0 -4.66578,-5.92123 7.2399321,7.2399321 0 0 0 -2.4305,-0.428072 6.9181571,6.9181571 0 0 0 -4.90994,2.074295 7.0589338,7.0589338 0 0 0 -2.07141,4.596783 c -0.21838,3.910139 2.39317,6.248749 4.69153,7.064678 z m -5.59084,16.376042 10.30545,-14.235665 a 8.9062658,8.9062658 0 0 1 -2.2467,0.287299 9.3860551,9.3860551 0 0 1 -3.14012,-0.551612 9.0700258,9.0700258 0 0 1 -4.32967,-3.209129 l -0.98252,17.553961 0.20395,0.07184 z m 15.22686,-40.833797 5.07084,25.135781 -0.35918,0.347633 -17.50793,20.786084 v 0 l -30.26117,85.20134 v 12.64117 a 10.776581,10.776581 0 0 1 -8.20532,10.4634 l -12.621,35.5389 7.85472,75.21199 a 9.3285947,9.3285947 0 0 1 -9.28257,10.22497 h -3.60272 v 4.30949 a 12.928458,12.928458 0 0 1 -25.85689,0 v -2.76383 l -4.55655,12.83077 a 4.3094833,4.3094833 0 0 1 -8.26564,-0.52 12.92845,12.92845 0 0 1 -21.65372,-9.53833 v -4.30948 h -1.72376 a 9.3257221,9.3257221 0 0 1 -9.28264,-10.22497 l 10.99205,-123.36905 v -71.10935 a 2.1547416,2.1547416 0 0 0 -4.30947,0 v 73.26123 a 10.773711,10.773711 0 0 1 -21.54742,0 v -66.797 a 34.475867,34.475867 0 0 1 34.47583,-34.47587 h 43.09485 a 34.475867,34.475867 0 0 1 34.47583,34.47587 v 28.39375 L 667.19274,101.554 v 0 l -0.47686,-27.172723 -0.0603,-0.494155 19.7834,-16.30134 1.45662,-1.436496 z m 2.87298,24.440519 -0.81876,-4.048043 -11.51499,15.910604 z m -20.11086,9.09875 1.10316,-19.608143 -3.18037,2.623035 z m -48.72595,136.682449 6.09941,-17.17472 a 10.756471,10.756471 0 0 1 -4.74044,-8.92639 v -73.26121 a 2.1547474,2.1547474 0 0 0 -4.30947,0 v 71.10647 z m -37.42633,105.38701 0.0206,-0.0517 h -0.0206 z"
     id="path3801"
     inkscape:connector-curvature="0"
     style="fill:#66c2a5;stroke:#000000;stroke-width:2.8729887px" />
  <path
     class="cls-1"
     d="m 562.15057,66.943105 a 9.141851,9.141851 0 0 1 7.37499,2.617298 l -0.95098,-9.015442 z m -1.43649,15.698012 c 2.29837,0.818802 5.80343,0.649299 8.09316,-2.516738 a 7.0474414,7.0474414 0 0 0 1.30435,-4.884081 6.926776,6.926776 0 0 0 -4.6657,-5.92123 7.2399321,7.2399321 0 0 0 -2.43059,-0.428072 6.9181571,6.9181571 0 0 0 -4.90992,2.074295 7.0589338,7.0589338 0 0 0 -2.07143,4.596783 c -0.21838,3.910139 2.39317,6.248749 4.69163,7.064678 z m -5.59084,16.376042 10.30537,-14.235665 a 8.9062658,8.9062658 0 0 1 -2.24669,0.287299 9.3860551,9.3860551 0 0 1 -3.14012,-0.551612 9.0700258,9.0700258 0 0 1 -4.3296,-3.209129 l -0.9826,17.553961 0.20395,0.07184 z m 15.22679,-40.833797 5.07083,25.135781 -0.35909,0.347633 -17.50802,20.786084 v 0 l -30.26116,85.20134 v 12.64117 a 10.776581,10.776581 0 0 1 -8.20524,10.4634 l -12.62109,35.5389 7.8548,75.21199 a 9.3285947,9.3285947 0 0 1 -9.28265,10.22497 h -3.60272 v 4.30949 a 12.92845,12.92845 0 0 1 -25.85689,0 v -2.76383 l -4.55659,12.83077 a 4.3094833,4.3094833 0 0 1 -8.2656,-0.52 12.92845,12.92845 0 0 1 -21.65372,-9.53833 v -4.30948 h -1.7238 a 9.3257221,9.3257221 0 0 1 -9.28261,-10.22497 l 10.99207,-123.36905 v -71.10935 a 2.1547474,2.1547474 0 0 0 -4.30949,0 v 73.26123 a 10.773711,10.773711 0 0 1 -21.54741,0 v -66.797 a 34.475867,34.475867 0 0 1 34.47585,-34.47587 h 43.09483 a 34.475867,34.475867 0 0 1 34.47584,34.47587 v 28.39375 L 549.4002,101.554 v 0 l -0.47688,-27.172723 -0.0602,-0.494155 19.78347,-16.30134 1.45662,-1.436496 z m 2.87305,24.440519 -0.81884,-4.048043 -11.51498,15.910604 z m -20.11094,9.09875 1.10318,-19.608143 -3.18039,2.623035 z m -48.72594,136.682449 6.09941,-17.17472 a 10.756471,10.756471 0 0 1 -4.74045,-8.92639 v -73.26121 a 2.1547474,2.1547474 0 0 0 -4.30947,0 v 71.10647 z m -37.4264,105.38701 0.0203,-0.0517 h -0.0203 z"
     id="path10"
     inkscape:connector-curvature="0"
     style="fill:#e6f598;stroke:#000000;stroke-width:2.8729887px" />
  <path
     class="cls-1"
     d="m 362.37793,34.053276 a 25.8569,25.8569 0 1 1 -25.85693,25.8569 25.8569,25.8569 0 0 1 25.85693,-25.8569 z"
     id="path12"
     inkscape:connector-curvature="0"
     style="fill:#fee08b;stroke:#000000;stroke-width:2.8729887px" />
  <path
     class="cls-2"
     d="m 206.92951,63.188743 a 24.99502,24.99502 0 0 0 49.99004,0 h 1.72379 a 26.718819,26.718819 0 0 1 -53.43763,0 z"
     id="path14"
     inkscape:connector-curvature="0"
     style="fill:#ffffff;stroke-width:0.28729892" />
  <path
     class="cls-1"
     d="m 126.79284,34.053276 a 25.8569,25.8569 0 1 1 -25.85692,25.8569 25.8569,25.8569 0 0 1 25.85692,-25.8569 z"
     id="path16"
     inkscape:connector-curvature="0"
     style="fill:#9e0142;stroke:#000000;stroke-width:2.8729887px" />
  <path
     class="cls-2"
     d="m 501.41088,91.918635 a 24.995015,24.995015 0 0 0 49.99003,0 h 1.72375 a 26.718796,26.718796 0 0 1 -53.43757,0 z"
     id="path18"
     inkscape:connector-curvature="0"
     style="fill:#ffffff;stroke-width:0.28729892" />
  <path
     class="cls-1"
     d="M 303.48161,62.78316 A 25.8569,25.8569 0 1 1 277.62476,88.640066 25.8569,25.8569 0 0 1 303.48161,62.78316 Z"
     id="path20"
     inkscape:connector-curvature="0"
     style="fill:#fdae61;stroke:#000000;stroke-width:2.8729887px" />
  <path
     class="cls-1"
     d="m 92.31694,172.03143 a 10.931722,10.931722 0 0 1 4.30949,1.90479 v -51.53853 a 2.1547474,2.1547474 0 0 0 -4.30949,0 z m 129.42241,-31.14607 a 3.602728,3.602728 0 0 1 2.51963,4.43878 l -33.73463,120.37823 a 3.605601,3.605601 0 0 1 -0.80156,1.4365 l -32.75211,36.1106 v 28.15528 a 12.92845,12.92845 0 0 1 -25.85686,0 V 206.43261 a 4.3095004,4.3095004 0 0 0 -8.619,0 v 124.97501 a 12.928458,12.928458 0 0 1 -25.85691,0 V 221.17391 h -0.0286 l -9.70497,-4.33534 -37.699303,84.40267 a 263.31517,263.31517 0 0 1 -33.194564,55.07807 l -0.620516,0.79007 a 2.9017188,2.9017188 0 0 1 -5.14267,-2.2984 l 0.17526,-0.9883 A 263.41573,263.41573 0 0 1 29.26654,292.34072 l 37.693603,-84.4199 -9.710734,-4.32673 a 2.2983911,2.2983911 0 0 1 -1.149181,-3.03675 2.2983911,2.2983911 0 0 1 3.036762,-1.14919 l 13.640937,6.09074 1.042924,-2.33287 a 10.730613,10.730613 0 0 1 -3.036762,-7.49276 V 128.86191 A 34.475867,34.475867 0 0 1 105.25993,94.386051 h 43.09485 a 34.475867,34.475867 0 0 1 34.47587,34.475859 v 2.02834 l 5.70575,2.84999 a 60.746475,60.746475 0 0 0 22.21973,6.22576 z m -60.47064,36.50708 v -54.99475 a 2.1547555,2.1547555 0 0 0 -4.30951,0 v 70.37098 z m -64.64228,38.748 v -28.00303 l -1.3704,-0.61195 -2.93909,6.58489 v 1.54855 a 10.756471,10.756471 0 0 1 -4.64851,8.86029 l -2.8385,6.35505 z"
     id="path3722"
     inkscape:connector-curvature="0"
     style="fill:#9e0142;stroke:#000000;stroke-width:2.8729887px" />
  <path
     class="cls-1"
     d="m 499.68709,91.918635 a 26.718796,26.718796 0 0 0 53.43757,0 h -1.72375 a 24.995015,24.995015 0 0 1 -49.99003,0 z m 97.01223,38.452065 a 67.963426,67.963426 0 0 1 -0.83318,42.69263 l -13.43698,37.82576 v 16.77826 a 10.770836,10.770836 0 0 1 -9.76817,10.72488 l -11.41154,32.13438 a 66.94064,66.94064 0 0 1 -4.67719,10.29104 v 82.59843 a 12.928458,12.928458 0 1 1 -25.85689,0 v -60.54824 a 2.8959728,2.8959728 0 0 1 0,-2.16049 v -62.26628 a 4.3094833,4.3094833 0 0 0 -8.61894,0 v 124.97501 a 12.92847,12.92847 0 0 1 -25.85694,0 V 154.40615 a 2.1547474,2.1547474 0 0 0 -4.30949,0 v 73.2612 a 10.773711,10.773711 0 0 1 -21.54741,0 v -66.79699 a 34.475867,34.475867 0 0 1 34.47588,-34.47586 h -6.51592 c -11.36271,0 -18.28948,-12.49751 -12.26766,-22.12201 l 27.48297,-43.985465 c 5.93565,-9.480863 19.76327,-9.480863 25.69892,0 l 27.48299,43.985465 c 6.03323,9.636 -0.905,22.12201 -12.26762,22.12201 h -6.5189 a 34.475867,34.475867 0 0 1 34.47591,34.47586 v 1.08887 l 9.59583,-27.0061 c -0.24717,-0.95959 -0.51714,-1.91628 -0.81305,-2.87298 a 2.8758963,2.8758963 0 0 1 5.48738,-1.7238 z m -6.24875,40.7706 a 62.220319,62.220319 0 0 0 2.06857,-34.15122 l -10.08998,28.40237 v 28.32767 z m -33.87831,95.38322 10.3629,-29.16944 a 10.776581,10.776581 0 0 1 -6.05343,-9.68485 v -1.606 l -4.30947,12.13263 z m 4.30947,-43.89352 v -68.22485 a 2.1547474,2.1547474 0 0 0 -4.30947,0 v 80.35462 z"
     id="path23"
     inkscape:connector-curvature="0"
     style="fill:#abdda4;stroke:#000000;stroke-width:2.8729887px" />
  <path
     class="cls-1"
     d="m 269.00577,200.76133 a 10.931722,10.931722 0 0 1 4.30949,1.90479 v -51.53856 a 2.1547474,2.1547474 0 0 0 -4.30949,0 z m 129.4224,-31.14607 a 3.602728,3.602728 0 0 1 2.51959,4.43876 l -33.73465,120.37824 a 3.605601,3.605601 0 0 1 -0.80155,1.43649 l -32.75206,36.11059 v 28.15529 a 12.928458,12.928458 0 0 1 -25.85691,0 V 235.1625 a 4.3094833,4.3094833 0 0 0 -8.61894,0 v 124.97501 a 12.92846,12.92846 0 0 1 -25.85692,0 V 249.9038 h -0.0285 l -9.70497,-4.33534 -37.69932,84.40266 a 263.31517,263.31517 0 0 1 -33.19456,55.07808 l -0.62053,0.79007 a 2.9017188,2.9017188 0 0 1 -5.14267,-2.29839 l 0.17526,-0.98831 a 263.41573,263.41573 0 0 1 18.84395,-61.48196 l 37.6936,-84.41991 -9.71073,-4.32672 a 2.2983911,2.2983911 0 0 1 -1.14919,-3.03674 2.2983911,2.2983911 0 0 1 3.03677,-1.14921 l 13.64094,6.09075 1.04286,-2.33288 a 10.730613,10.730613 0 0 1 -3.03686,-7.49275 v -66.81136 a 34.475867,34.475867 0 0 1 34.47584,-34.47586 h 43.09485 a 34.475867,34.475867 0 0 1 34.47586,34.47586 v 2.02832 l 5.70576,2.85002 a 60.746475,60.746475 0 0 0 22.21968,6.22576 z m -60.4707,36.50706 v -54.99476 a 2.1547416,2.1547416 0 0 0 -4.30945,0 v 70.371 z m -64.64221,38.74801 V 216.8673 l -1.37042,-0.61194 -2.93907,6.58488 v 1.54855 a 10.756471,10.756471 0 0 1 -4.64851,8.8603 l -2.83849,6.35506 z"
     id="path25"
     inkscape:connector-curvature="0"
     style="fill:#fdae61;stroke:#000000;stroke-width:2.8729887px" />
  <path
     class="cls-2"
     d="m 619.20335,91.918635 a 24.995061,24.995061 0 0 0 49.99012,0 h 1.72374 a 26.718815,26.718815 0 0 1 -53.43762,0 z"
     id="path27"
     inkscape:connector-curvature="0"
     style="fill:#ffffff;stroke-width:0.28729892" />
  <path
     class="cls-2"
     d="m 501.41088,91.918635 a 24.995015,24.995015 0 0 0 49.99003,0 h 1.72375 a 26.718796,26.718796 0 0 1 -53.43757,0 z"
     id="path29"
     inkscape:connector-curvature="0"
     style="fill:#ffffff;stroke-width:0.28729892" />
  <path
     class="cls-1"
     d="m 503.25425,95.673003 a 9.141851,9.141851 0 0 1 7.37499,2.617292 l -0.95098,-9.015447 z M 501.81777,111.371 c 2.29845,0.81881 5.80342,0.64931 8.09323,-2.51673 a 7.0474414,7.0474414 0 0 0 1.30435,-4.88408 6.926776,6.926776 0 0 0 -4.66578,-5.921231 7.2399321,7.2399321 0 0 0 -2.4305,-0.428074 6.9181571,6.9181571 0 0 0 -4.90995,2.074301 7.0589338,7.0589338 0 0 0 -2.07142,4.596784 c -0.21837,3.91013 2.39318,6.24874 4.69155,7.06468 z m -5.59084,16.37603 10.30544,-14.23564 a 8.9062658,8.9062658 0 0 1 -2.24669,0.28729 9.3860551,9.3860551 0 0 1 -3.14018,-0.55162 9.0700258,9.0700258 0 0 1 -4.32956,-3.20911 l -0.98259,17.55396 0.20398,0.0717 z m 15.22686,-40.833777 5.07084,25.135777 -0.35917,0.34764 -17.50795,20.78607 v 0 l -30.26119,85.20135 v 12.64116 a 10.776581,10.776581 0 0 1 -8.20526,10.46343 l -12.62105,35.53886 7.85473,75.21201 a 9.3285947,9.3285947 0 0 1 -9.28262,10.22497 h -3.60271 v 4.30948 a 12.92846,12.92846 0 0 1 -25.85692,0 v -2.76382 l -4.55654,12.83078 a 4.3094833,4.3094833 0 0 1 -8.26558,-0.52002 12.92845,12.92845 0 0 1 -21.65374,-9.53833 v -4.30948 h -1.72379 a 9.3257221,9.3257221 0 0 1 -9.28261,-10.22496 l 10.99202,-123.36904 v -71.10935 a 2.1547416,2.1547416 0 0 0 -4.30944,0 v 73.26121 a 10.773711,10.773711 0 0 1 -21.54742,0 v -66.79698 a 34.475867,34.475867 0 0 1 34.47585,-34.47587 h 43.09485 a 34.475867,34.475867 0 0 1 34.47586,34.47587 v 28.39374 l 22.12203,-62.34386 v 0 l -0.47694,-27.17273 -0.0602,-0.49415 19.78345,-16.30134 1.45654,-1.436494 z m 2.87298,24.440517 -0.81883,-4.04803 -11.51491,15.9106 z m -20.11092,9.09876 1.10322,-19.60816 -3.18041,2.62305 z m -48.72587,136.68245 6.09933,-17.17474 a 10.756471,10.756471 0 0 1 -4.7404,-8.92638 v -73.26121 a 2.1547509,2.1547509 0 0 0 -4.3095,0 v 71.10648 z m -37.42643,105.387 0.0203,-0.0518 h -0.0203 z"
     id="path31"
     inkscape:connector-curvature="0"
     style="fill:#ffffbf;stroke:#000000;stroke-width:2.8729887px" />
  <path
     class="cls-1"
     d="m 267.66922,95.673003 a 9.141851,9.141851 0 0 1 7.37493,2.617292 l -0.95097,-9.015447 z M 266.2327,111.371 c 2.29842,0.81881 5.80344,0.64931 8.09318,-2.51673 a 7.0474414,7.0474414 0 0 0 1.30436,-4.88408 6.926776,6.926776 0 0 0 -4.66575,-5.921231 7.2399321,7.2399321 0 0 0 -2.43052,-0.428074 6.9181571,6.9181571 0 0 0 -4.90992,2.074301 7.0589338,7.0589338 0 0 0 -2.07147,4.596784 c -0.21833,3.91013 2.39322,6.24874 4.69159,7.06468 z m -5.59085,16.37603 10.30541,-14.23564 a 8.9062658,8.9062658 0 0 1 -2.24665,0.28729 9.3860551,9.3860551 0 0 1 -3.14022,-0.55162 9.0700258,9.0700258 0 0 1 -4.32958,-3.20911 l -0.98254,17.55396 0.20398,0.0717 z m 15.22686,-40.833777 5.0708,25.135777 -0.35911,0.34764 -17.50802,20.78607 v 0 l -30.26119,85.20135 v 12.64116 a 10.776581,10.776581 0 0 1 -8.20524,10.46343 l -12.62101,35.53886 7.85473,75.21201 a 9.3285947,9.3285947 0 0 1 -9.28262,10.22497 h -3.60271 v 4.30948 a 12.928465,12.928465 0 0 1 -25.85693,0 v -2.76382 l -4.55657,12.83078 a 4.3094833,4.3094833 0 0 1 -8.26556,-0.52002 12.92845,12.92845 0 0 1 -21.65372,-9.53833 v -4.30948 h -1.7238 a 9.3257221,9.3257221 0 0 1 -9.28261,-10.22496 l 10.99202,-123.36904 v -71.10935 a 2.1547509,2.1547509 0 0 0 -4.3095,0 v 73.26121 a 10.773711,10.773711 0 0 1 -21.54742,0 v -66.79698 a 34.475867,34.475867 0 0 1 34.47591,-34.47587 h 43.0948 a 34.475867,34.475867 0 0 1 34.47591,34.47587 v 28.39374 l 22.12199,-62.34386 v 0 l -0.47689,-27.17273 -0.0602,-0.49415 19.78338,-16.30134 1.45661,-1.436494 z m 2.87297,24.440517 -0.81879,-4.04803 -11.51492,15.9106 z m -20.11091,9.09876 1.10323,-19.60816 -3.18041,2.62305 z m -48.72587,136.68245 6.09935,-17.17474 a 10.756471,10.756471 0 0 1 -4.74048,-8.92638 v -73.26121 a 2.1547416,2.1547416 0 0 0 -4.30943,0 v 71.10648 z m -37.42647,105.387 0.0202,-0.0518 h -0.0202 z"
     id="path35"
     inkscape:connector-curvature="0"
     style="fill:#d53e4f;stroke:#000000;stroke-width:2.8729887px" />
  <path
     class="cls-1"
     d="m 92.31694,172.03143 a 10.931722,10.931722 0 0 1 4.30949,1.90479 v -51.53853 a 2.1547474,2.1547474 0 0 0 -4.30949,0 z m 129.42241,-31.14607 a 3.602728,3.602728 0 0 1 2.51963,4.43878 l -33.73463,120.37823 a 3.605601,3.605601 0 0 1 -0.80156,1.4365 l -32.75211,36.1106 v 28.15528 a 12.92845,12.92845 0 0 1 -25.85686,0 V 206.43261 a 4.3095004,4.3095004 0 0 0 -8.619,0 v 124.97501 a 12.928458,12.928458 0 0 1 -25.85691,0 V 221.17391 h -0.0286 l -9.70497,-4.33534 -37.699303,84.40267 a 263.31517,263.31517 0 0 1 -33.194564,55.07807 l -0.620516,0.79007 a 2.9017188,2.9017188 0 0 1 -5.14267,-2.2984 l 0.17526,-0.9883 A 263.41573,263.41573 0 0 1 29.26654,292.34072 l 37.693603,-84.4199 -9.710734,-4.32673 a 2.2983911,2.2983911 0 0 1 -1.149181,-3.03675 2.2983911,2.2983911 0 0 1 3.036762,-1.14919 l 13.640937,6.09074 1.042924,-2.33287 a 10.730613,10.730613 0 0 1 -3.036762,-7.49276 V 128.86191 A 34.475867,34.475867 0 0 1 105.25993,94.386051 h 43.09485 a 34.475867,34.475867 0 0 1 34.47587,34.475859 v 2.02834 l 5.70575,2.84999 a 60.746475,60.746475 0 0 0 22.21973,6.22576 z m -60.47064,36.50708 v -54.99475 a 2.1547555,2.1547555 0 0 0 -4.30951,0 v 70.37098 z m -64.64228,38.748 v -28.00303 l -1.3704,-0.61195 -2.93909,6.58489 v 1.54855 a 10.756471,10.756471 0 0 1 -4.64851,8.86029 l -2.8385,6.35505 z"
     id="path37"
     inkscape:connector-curvature="0"
     style="fill:#9e0142;stroke:#000000;stroke-width:2.8729887px" />
  <path
     class="cls-1"
     d="m 676.3759,63.188743 a 26.718796,26.718796 0 0 0 53.43755,0 h -1.72376 a 24.995015,24.995015 0 0 1 -49.99003,0 z m 97.0122,38.452077 a 67.963426,67.963426 0 0 1 -0.83318,42.69263 l -13.43691,37.82575 v 16.77827 a 10.770836,10.770836 0 0 1 -9.76817,10.72487 l -11.41153,32.13438 a 66.94064,66.94064 0 0 1 -4.67727,10.29104 v 82.59843 a 12.928458,12.928458 0 1 1 -25.85689,0 v -60.54824 a 2.8959728,2.8959728 0 0 1 0,-2.16048 v -62.26629 a 4.3094833,4.3094833 0 0 0 -8.61894,0 v 124.97501 a 12.928458,12.928458 0 0 1 -25.8569,0 V 125.67625 a 2.1547741,2.1547741 0 0 0 -4.30954,0 v 73.26122 a 10.773711,10.773711 0 0 1 -21.54742,0 v -66.79699 a 34.475867,34.475867 0 0 1 34.4759,-34.475873 h -6.51588 c -11.36271,0 -18.28953,-12.497499 -12.26771,-22.122013 l 27.483,-43.985463 c 5.93564,-9.480863 19.76325,-9.480863 25.69889,0 l 27.483,43.985463 c 6.0333,9.636007 -0.90501,22.122013 -12.26762,22.122013 h -6.51883 a 34.475867,34.475867 0 0 1 34.47591,34.475873 v 1.08886 l 9.59575,-27.0061 c -0.24707,-0.95956 -0.51714,-1.91628 -0.81304,-2.87299 a 2.8758963,2.8758963 0 0 1 5.48738,-1.72379 z m -6.24874,40.77059 a 62.220319,62.220319 0 0 0 2.06857,-34.15121 l -10.08992,28.40236 v 28.32768 z m -33.87832,95.38323 10.36291,-29.16945 a 10.776581,10.776581 0 0 1 -6.05336,-9.68485 v -1.606 l -4.30955,12.13263 z m 4.30955,-43.89352 v -68.22487 a 2.1547764,2.1547764 0 0 0 -4.30955,0 v 80.35463 z"
     id="path39"
     inkscape:connector-curvature="0"
     style="fill:#5e4fa2;stroke:#000000;stroke-width:2.8729887px" />
  <path
     class="cls-1"
     d="m 503.65931,60.024949 a 2.2265663,2.2265663 0 0 1 -2.08569,2.217948 l -4.72035,0.545868 a 26.198785,26.198785 0 0 1 0.2729,3.763617 25.8569,25.8569 0 0 1 -51.62187,2.169106 l -2.80115,0.324646 c -0.11778,0 -0.23557,0 -0.35048,0 A 5.5621067,5.5621067 0 1 1 442.617,57.927669 h 2.79538 l 4.70023,-15.275684 A 80.018489,80.018489 0 0 1 479.52052,2.8409812 l 7.00435,-5.0047502 a 1.2526231,1.2526231 0 0 1 1.98236,1.0199138 V 19.685316 a 2.58569,2.58569 0 0 1 -2.58569,2.585688 H 475.5788 l 11.6327,3.875661 a 2.58569,2.58569 0 0 1 1.67208,1.746776 l 8.21102,29.910689 h 4.34109 a 2.2236933,2.2236933 0 0 1 2.22362,2.220819 z"
     id="path42"
     inkscape:connector-curvature="0"
     style="fill:#e6f598;stroke:#000000;stroke-width:2.8729887px" />
  <path
     class="cls-1"
     d="m 327.90202,172.03143 a 10.931722,10.931722 0 0 1 4.30949,1.90479 v -51.53853 a 2.1547474,2.1547474 0 0 0 -4.30949,0 z m 129.4224,-31.14607 a 3.602728,3.602728 0 0 1 2.51964,4.43878 l -33.73463,120.37823 a 3.605601,3.605601 0 0 1 -0.80155,1.4365 l -32.75212,36.1106 v 28.15528 a 12.92845,12.92845 0 0 1 -25.85687,0 V 206.43261 a 4.3094966,4.3094966 0 0 0 -8.61899,0 v 124.97501 a 12.928458,12.928458 0 0 1 -25.85691,0 V 221.17391 h -0.0285 l -9.70497,-4.33534 -37.69932,84.40267 a 263.31517,263.31517 0 0 1 -33.19451,55.07807 l -0.62057,0.79007 a 2.9017188,2.9017188 0 0 1 -5.14268,-2.2984 l 0.17526,-0.9883 a 263.41573,263.41573 0 0 1 18.84395,-61.48196 l 37.69361,-84.4199 -9.71069,-4.32673 a 2.2983911,2.2983911 0 0 1 -1.14922,-3.03675 2.2983911,2.2983911 0 0 1 3.03677,-1.14919 l 13.64092,6.09074 1.04293,-2.33287 a 10.730613,10.730613 0 0 1 -3.03677,-7.49276 V 128.86191 A 34.475867,34.475867 0 0 1 340.845,94.386051 h 43.09484 a 34.475867,34.475867 0 0 1 34.47587,34.475859 v 2.02834 l 5.70576,2.84999 a 60.746475,60.746475 0 0 0 22.21972,6.22576 z m -60.47064,36.50708 v -54.99475 a 2.1547509,2.1547509 0 0 0 -4.3095,0 v 70.37098 z m -64.64227,38.748 v -28.00303 l -1.3704,-0.61195 -2.93909,6.58489 v 1.54855 a 10.756471,10.756471 0 0 1 -4.6485,8.86029 l -2.8385,6.35505 z"
     id="path44"
     inkscape:connector-curvature="0"
     style="fill:#fee08b;stroke:#000000;stroke-width:2.8729887px" />
  <path
     class="cls-1"
     d="m 205.20571,63.188743 a 26.718819,26.718819 0 0 0 53.43763,0 h -1.72379 a 24.99502,24.99502 0 0 1 -49.99004,0 z m 97.01222,38.452077 a 67.963426,67.963426 0 0 1 -0.83312,42.69263 l -13.43702,37.82575 v 16.77827 a 10.770836,10.770836 0 0 1 -9.76815,10.72487 l -11.41149,32.13438 a 66.94064,66.94064 0 0 1 -4.67726,10.29104 v 82.59843 a 12.92845,12.92845 0 1 1 -25.85687,0 v -60.54824 a 2.8959728,2.8959728 0 0 1 0,-2.16048 v -62.26629 a 4.3094952,4.3094952 0 0 0 -8.61899,0 v 124.97501 a 12.92845,12.92845 0 0 1 -25.85687,0 V 125.67625 a 2.1547474,2.1547474 0 0 0 -4.30949,0 v 73.26122 a 10.773715,10.773715 0 0 1 -21.54743,0 V 132.14048 A 34.475867,34.475867 0 0 1 210.3771,97.664607 h -6.51594 c -11.36265,0 -18.28942,-12.497499 -12.26766,-22.122013 l 27.48304,-43.985463 c 5.93555,-9.480863 19.76328,-9.480863 25.69889,0 l 27.48298,43.985463 c 6.0333,9.636007 -0.905,22.122013 -12.26767,22.122013 h -6.51879 a 34.475867,34.475867 0 0 1 34.47584,34.475873 v 1.08886 l 9.59582,-27.0061 c -0.24709,-0.95956 -0.51718,-1.91628 -0.81308,-2.87299 a 2.8758963,2.8758963 0 0 1 5.4874,-1.72379 z m -6.24875,40.77059 a 62.220319,62.220319 0 0 0 2.06856,-34.15121 l -10.08995,28.40236 v 28.32768 z m -33.87829,95.38323 10.36288,-29.16945 a 10.776581,10.776581 0 0 1 -6.05339,-9.68485 v -1.606 l -4.30949,12.13263 z m 4.30949,-43.89352 v -68.22487 a 2.1547474,2.1547474 0 0 0 -4.30949,0 v 80.35463 z"
     id="path46"
     inkscape:connector-curvature="0"
     style="fill:#f46d43;stroke:#000000;stroke-width:2.8729887px" />
  <path
     class="cls-2"
     d="m 619.20335,91.918635 a 24.995061,24.995061 0 0 0 49.99012,0 h 1.72374 a 26.718815,26.718815 0 0 1 -53.43762,0 z"
     id="path48"
     inkscape:connector-curvature="0"
     style="fill:#ffffff;stroke-width:0.28729892" />
  <path
     class="cls-1"
     d="m 267.66922,95.673003 a 9.141851,9.141851 0 0 1 7.37493,2.617292 l -0.95097,-9.015447 z M 266.2327,111.371 c 2.29842,0.81881 5.80344,0.64931 8.09318,-2.51673 a 7.0474414,7.0474414 0 0 0 1.30436,-4.88408 6.926776,6.926776 0 0 0 -4.66575,-5.921231 7.2399321,7.2399321 0 0 0 -2.43052,-0.428074 6.9181571,6.9181571 0 0 0 -4.90992,2.074301 7.0589338,7.0589338 0 0 0 -2.07147,4.596784 c -0.21833,3.91013 2.39322,6.24874 4.69159,7.06468 z m -5.59085,16.37603 10.30541,-14.23564 a 8.9062658,8.9062658 0 0 1 -2.24665,0.28729 9.3860551,9.3860551 0 0 1 -3.14022,-0.55162 9.0700258,9.0700258 0 0 1 -4.32958,-3.20911 l -0.98254,17.55396 0.20398,0.0717 z m 15.22686,-40.833777 5.0708,25.135777 -0.35911,0.34764 -17.50802,20.78607 v 0 l -30.26119,85.20135 v 12.64116 a 10.776581,10.776581 0 0 1 -8.20524,10.46343 l -12.62101,35.53886 7.85473,75.21201 a 9.3285947,9.3285947 0 0 1 -9.28262,10.22497 h -3.60271 v 4.30948 a 12.928465,12.928465 0 0 1 -25.85693,0 v -2.76382 l -4.55657,12.83078 a 4.3094833,4.3094833 0 0 1 -8.26556,-0.52002 12.92845,12.92845 0 0 1 -21.65372,-9.53833 v -4.30948 h -1.7238 a 9.3257221,9.3257221 0 0 1 -9.28261,-10.22496 l 10.99202,-123.36904 v -71.10935 a 2.1547509,2.1547509 0 0 0 -4.3095,0 v 73.26121 a 10.773711,10.773711 0 0 1 -21.54742,0 v -66.79698 a 34.475867,34.475867 0 0 1 34.47591,-34.47587 h 43.0948 a 34.475867,34.475867 0 0 1 34.47591,34.47587 v 28.39374 l 22.12199,-62.34386 v 0 l -0.47689,-27.17273 -0.0602,-0.49415 19.78338,-16.30134 1.45661,-1.436494 z m 2.87297,24.440517 -0.81879,-4.04803 -11.51492,15.9106 z m -20.11091,9.09876 1.10323,-19.60816 -3.18041,2.62305 z m -48.72587,136.68245 6.09935,-17.17474 a 10.756471,10.756471 0 0 1 -4.74048,-8.92638 v -73.26121 a 2.1547416,2.1547416 0 0 0 -4.30943,0 v 71.10648 z m -37.42647,105.387 0.0202,-0.0518 h -0.0202 z"
     id="path52"
     inkscape:connector-curvature="0"
     style="fill:#d53e4f;stroke:#000000;stroke-width:2.8729887px" />
  <path
     class="cls-1"
     d="m 617.47959,91.918635 a 26.718815,26.718815 0 0 0 53.43762,0 h -1.72374 a 24.995061,24.995061 0 0 1 -49.99012,0 z m 97.01228,38.452065 a 67.963426,67.963426 0 0 1 -0.83317,42.69263 l -13.43701,37.82576 v 16.77826 a 10.770836,10.770836 0 0 1 -9.76815,10.72488 L 679.042,270.52661 a 66.94064,66.94064 0 0 1 -4.6772,10.29104 v 82.59843 a 12.928458,12.928458 0 1 1 -25.85688,0 v -60.54824 a 2.8959728,2.8959728 0 0 1 0,-2.16049 v -62.26628 a 4.3095109,4.3095109 0 0 0 -8.61902,0 v 124.97501 a 12.92845,12.92845 0 0 1 -25.85689,0 V 154.40615 a 2.1547474,2.1547474 0 0 0 -4.30947,0 v 73.2612 a 10.773715,10.773715 0 0 1 -21.54743,0 v -66.79699 a 34.475867,34.475867 0 0 1 34.47584,-34.47586 h -6.51589 c -11.36272,0 -18.28945,-12.49751 -12.26771,-22.12201 l 27.48307,-43.985465 c 5.93556,-9.480863 19.76327,-9.480863 25.69891,0 l 27.48299,43.985465 c 6.03322,9.636 -0.905,22.12201 -12.26772,22.12201 h -6.51881 a 34.475867,34.475867 0 0 1 34.4759,34.47586 v 1.08887 l 9.59577,-27.0061 c -0.24709,-0.95959 -0.51708,-1.91628 -0.81307,-2.87298 a 2.8759313,2.8759313 0 0 1 5.48748,-1.7238 z m -6.24876,40.7706 a 62.220319,62.220319 0 0 0 2.06849,-34.15122 l -10.08991,28.40237 v 28.32767 z m -33.87831,95.38322 10.36283,-29.16944 a 10.776581,10.776581 0 0 1 -6.05336,-9.68485 v -1.606 l -4.30947,12.13263 z m 4.30947,-43.89352 v -68.22485 a 2.1547416,2.1547416 0 0 0 -4.30947,0 v 80.35462 z"
     id="path54"
     inkscape:connector-curvature="0"
     style="fill:#3288bd;stroke:#000000;stroke-width:2.8729887px" />
  <path
     class="cls-1"
     d="m 444.7631,88.754839 a 2.2265663,2.2265663 0 0 1 -2.08582,2.217947 l -4.72031,0.545873 a 26.198785,26.198785 0 0 1 0.27294,3.763603 25.8569,25.8569 0 0 1 -51.62186,2.169119 l -2.80115,0.32464 c -0.1178,0 -0.23557,0 -0.35049,0 a 5.5621067,5.5621067 0 1 1 0.26428,-11.118465 h 2.79544 l 4.70022,-15.275679 a 80.018489,80.018489 0 0 1 29.40791,-39.811009 l 7.00436,-5.00475 a 1.2526231,1.2526231 0 0 1 1.98235,1.019914 V 48.4152 a 2.58569,2.58569 0 0 1 -2.58569,2.585693 h -10.34279 l 11.63275,3.875662 a 2.58569,2.58569 0 0 1 1.67208,1.746777 l 8.21102,29.910687 h 4.34107 a 2.2236933,2.2236933 0 0 1 2.22369,2.22082 z"
     id="path56"
     inkscape:connector-curvature="0"
     style="fill:#ffffbf;stroke:#000000;stroke-width:2.8729887px" />
  <path
     class="cls-1"
     d="m 209.17802,88.754839 a 2.2265663,2.2265663 0 0 1 -2.0858,2.217947 l -4.72033,0.545873 a 26.198785,26.198785 0 0 1 0.27295,3.763603 25.8569,25.8569 0 0 1 -51.62188,2.169119 l -2.80115,0.32464 c -0.11783,0 -0.23561,0 -0.35054,0 a 5.5621067,5.5621067 0 1 1 0.26433,-11.118465 h 2.79541 l 4.70021,-15.275679 a 80.018489,80.018489 0 0 1 29.40791,-39.811009 l 7.00436,-5.00475 a 1.2526231,1.2526231 0 0 1 1.98236,1.019914 V 48.4152 a 2.58569,2.58569 0 0 1 -2.5857,2.585693 h -10.34274 l 11.63276,3.875662 a 2.58569,2.58569 0 0 1 1.67207,1.746777 l 8.21097,29.910687 h 4.34113 a 2.2236933,2.2236933 0 0 1 2.22368,2.22082 z"
     id="path58"
     inkscape:connector-curvature="0"
     style="fill:#d53e4f;stroke:#000000;stroke-width:2.8729887px" />
  <path
     class="cls-1"
     d="m 617.47959,91.918635 a 26.718815,26.718815 0 0 0 53.43762,0 h -1.72374 a 24.995061,24.995061 0 0 1 -49.99012,0 z m 97.01228,38.452065 a 67.963426,67.963426 0 0 1 -0.83317,42.69263 l -13.43701,37.82576 v 16.77826 a 10.770836,10.770836 0 0 1 -9.76815,10.72488 L 679.042,270.52661 a 66.94064,66.94064 0 0 1 -4.6772,10.29104 v 82.59843 a 12.928458,12.928458 0 1 1 -25.85688,0 v -60.54824 a 2.8959728,2.8959728 0 0 1 0,-2.16049 v -62.26628 a 4.3095109,4.3095109 0 0 0 -8.61902,0 v 124.97501 a 12.92845,12.92845 0 0 1 -25.85689,0 V 154.40615 a 2.1547474,2.1547474 0 0 0 -4.30947,0 v 73.2612 a 10.773715,10.773715 0 0 1 -21.54743,0 v -66.79699 a 34.475867,34.475867 0 0 1 34.47584,-34.47586 h -6.51589 c -11.36272,0 -18.28945,-12.49751 -12.26771,-22.12201 l 27.48307,-43.985465 c 5.93556,-9.480863 19.76327,-9.480863 25.69891,0 l 27.48299,43.985465 c 6.03322,9.636 -0.905,22.12201 -12.26772,22.12201 h -6.51881 a 34.475867,34.475867 0 0 1 34.4759,34.47586 v 1.08887 l 9.59577,-27.0061 c -0.24709,-0.95959 -0.51708,-1.91628 -0.81307,-2.87298 a 2.8759313,2.8759313 0 0 1 5.48748,-1.7238 z m -6.24876,40.7706 a 62.220319,62.220319 0 0 0 2.06849,-34.15122 l -10.08991,28.40237 v 28.32767 z m -33.87831,95.38322 10.36283,-29.16944 a 10.776581,10.776581 0 0 1 -6.05336,-9.68485 v -1.606 l -4.30947,12.13263 z m 4.30947,-43.89352 v -68.22485 a 2.1547416,2.1547416 0 0 0 -4.30947,0 v 80.35462 z"
     id="path60"
     inkscape:connector-curvature="0"
     style="fill:#3288bd;stroke:#000000;stroke-width:2.8729887px" />
  <path
     class="cls-1"
     d="m 499.68709,91.918635 a 26.718796,26.718796 0 0 0 53.43757,0 h -1.72375 a 24.995015,24.995015 0 0 1 -49.99003,0 z m 97.01223,38.452065 a 67.963426,67.963426 0 0 1 -0.83318,42.69263 l -13.43698,37.82576 v 16.77826 a 10.770836,10.770836 0 0 1 -9.76817,10.72488 l -11.41154,32.13438 a 66.94064,66.94064 0 0 1 -4.67719,10.29104 v 82.59843 a 12.928458,12.928458 0 1 1 -25.85689,0 v -60.54824 a 2.8959728,2.8959728 0 0 1 0,-2.16049 v -62.26628 a 4.3094833,4.3094833 0 0 0 -8.61894,0 v 124.97501 a 12.92847,12.92847 0 0 1 -25.85694,0 V 154.40615 a 2.1547474,2.1547474 0 0 0 -4.30949,0 v 73.2612 a 10.773711,10.773711 0 0 1 -21.54741,0 v -66.79699 a 34.475867,34.475867 0 0 1 34.47588,-34.47586 h -6.51592 c -11.36271,0 -18.28948,-12.49751 -12.26766,-22.12201 l 27.48297,-43.985465 c 5.93565,-9.480863 19.76327,-9.480863 25.69892,0 l 27.48299,43.985465 c 6.03323,9.636 -0.905,22.12201 -12.26762,22.12201 h -6.5189 a 34.475867,34.475867 0 0 1 34.47591,34.47586 v 1.08887 l 9.59583,-27.0061 c -0.24717,-0.95959 -0.51714,-1.91628 -0.81305,-2.87298 a 2.8758963,2.8758963 0 0 1 5.48738,-1.7238 z m -6.24875,40.7706 a 62.220319,62.220319 0 0 0 2.06857,-34.15122 l -10.08998,28.40237 v 28.32767 z m -33.87831,95.38322 10.3629,-29.16944 a 10.776581,10.776581 0 0 1 -6.05343,-9.68485 v -1.606 l -4.30947,12.13263 z m 4.30947,-43.89352 v -68.22485 a 2.1547474,2.1547474 0 0 0 -4.30947,0 v 80.35462 z"
     id="path62"
     inkscape:connector-curvature="0"
     style="fill:#abdda4;stroke:#000000;stroke-width:2.8729887px" />
  <path
     class="cls-1"
     d="m 444.7631,88.754839 a 2.2265663,2.2265663 0 0 1 -2.08582,2.217947 l -4.72031,0.545873 a 26.198785,26.198785 0 0 1 0.27294,3.763603 25.8569,25.8569 0 0 1 -51.62186,2.169119 l -2.80115,0.32464 c -0.1178,0 -0.23557,0 -0.35049,0 a 5.5621067,5.5621067 0 1 1 0.26428,-11.118465 h 2.79544 l 4.70022,-15.275679 a 80.018489,80.018489 0 0 1 29.40791,-39.811009 l 7.00436,-5.00475 a 1.2526231,1.2526231 0 0 1 1.98235,1.019914 V 48.4152 a 2.58569,2.58569 0 0 1 -2.58569,2.585693 h -10.34279 l 11.63275,3.875662 a 2.58569,2.58569 0 0 1 1.67208,1.746777 l 8.21102,29.910687 h 4.34107 a 2.2236933,2.2236933 0 0 1 2.22369,2.22082 z"
     id="path64"
     inkscape:connector-curvature="0"
     style="fill:#ffffbf;stroke:#000000;stroke-width:2.8729887px" />
  <path
     class="cls-1"
     d="m 209.17802,88.754839 a 2.2265663,2.2265663 0 0 1 -2.0858,2.217947 l -4.72033,0.545873 a 26.198785,26.198785 0 0 1 0.27295,3.763603 25.8569,25.8569 0 0 1 -51.62188,2.169119 l -2.80115,0.32464 c -0.11783,0 -0.23561,0 -0.35054,0 a 5.5621067,5.5621067 0 1 1 0.26433,-11.118465 h 2.79541 l 4.70021,-15.275679 a 80.018489,80.018489 0 0 1 29.40791,-39.811009 l 7.00436,-5.00475 a 1.2526231,1.2526231 0 0 1 1.98236,1.019914 V 48.4152 a 2.58569,2.58569 0 0 1 -2.5857,2.585693 h -10.34274 l 11.63276,3.875662 a 2.58569,2.58569 0 0 1 1.67207,1.746777 l 8.21097,29.910687 h 4.34113 a 2.2236933,2.2236933 0 0 1 2.22368,2.22082 z"
     id="path68"
     inkscape:connector-curvature="0"
     style="fill:#d53e4f;stroke:#000000;stroke-width:2.8729887px" />
  <path
     class="cls-1"
     d="M 303.48161,62.78316 A 25.8569,25.8569 0 1 1 277.62476,88.640066 25.8569,25.8569 0 0 1 303.48161,62.78316 Z"
     id="path33"
     inkscape:connector-curvature="0"
     style="fill:#fdae61;stroke:#000000;stroke-width:2.8729887px" />
  <path
     class="cls-1"
     d="m 503.25425,95.673003 a 9.141851,9.141851 0 0 1 7.37499,2.617292 l -0.95098,-9.015447 z M 501.81777,111.371 c 2.29845,0.81881 5.80342,0.64931 8.09323,-2.51673 a 7.0474414,7.0474414 0 0 0 1.30435,-4.88408 6.926776,6.926776 0 0 0 -4.66578,-5.921231 7.2399321,7.2399321 0 0 0 -2.4305,-0.428074 6.9181571,6.9181571 0 0 0 -4.90995,2.074301 7.0589338,7.0589338 0 0 0 -2.07142,4.596784 c -0.21837,3.91013 2.39318,6.24874 4.69155,7.06468 z m -5.59084,16.37603 10.30544,-14.23564 a 8.9062658,8.9062658 0 0 1 -2.24669,0.28729 9.3860551,9.3860551 0 0 1 -3.14018,-0.55162 9.0700258,9.0700258 0 0 1 -4.32956,-3.20911 l -0.98259,17.55396 0.20398,0.0717 z m 15.22686,-40.833777 5.07084,25.135777 -0.35917,0.34764 -17.50795,20.78607 v 0 l -30.26119,85.20135 v 12.64116 a 10.776581,10.776581 0 0 1 -8.20526,10.46343 l -12.62105,35.53886 7.85473,75.21201 a 9.3285947,9.3285947 0 0 1 -9.28262,10.22497 h -3.60271 v 4.30948 a 12.92846,12.92846 0 0 1 -25.85692,0 v -2.76382 l -4.55654,12.83078 a 4.3094833,4.3094833 0 0 1 -8.26558,-0.52002 12.92845,12.92845 0 0 1 -21.65374,-9.53833 v -4.30948 h -1.72379 a 9.3257221,9.3257221 0 0 1 -9.28261,-10.22496 l 10.99202,-123.36904 v -71.10935 a 2.1547416,2.1547416 0 0 0 -4.30944,0 v 73.26121 a 10.773711,10.773711 0 0 1 -21.54742,0 v -66.79698 a 34.475867,34.475867 0 0 1 34.47585,-34.47587 h 43.09485 a 34.475867,34.475867 0 0 1 34.47586,34.47587 v 28.39374 l 22.12203,-62.34386 v 0 l -0.47694,-27.17273 -0.0602,-0.49415 19.78345,-16.30134 1.45654,-1.436494 z m 2.87298,24.440517 -0.81883,-4.04803 -11.51491,15.9106 z m -20.11092,9.09876 1.10322,-19.60816 -3.18041,2.62305 z m -48.72587,136.68245 6.09933,-17.17474 a 10.756471,10.756471 0 0 1 -4.7404,-8.92638 v -73.26121 a 2.1547509,2.1547509 0 0 0 -4.3095,0 v 71.10648 z m -37.42643,105.387 0.0203,-0.0518 h -0.0203 z"
     id="path50"
     inkscape:connector-curvature="0"
     style="fill:#ffffbf;stroke:#000000;stroke-width:2.8729887px" />
  <path
     class="cls-1"
     d="m 269.00577,200.76133 a 10.931722,10.931722 0 0 1 4.30949,1.90479 v -51.53856 a 2.1547474,2.1547474 0 0 0 -4.30949,0 z m 129.4224,-31.14607 a 3.602728,3.602728 0 0 1 2.51959,4.43876 l -33.73465,120.37824 a 3.605601,3.605601 0 0 1 -0.80155,1.43649 l -32.75206,36.11059 v 28.15529 a 12.928458,12.928458 0 0 1 -25.85691,0 V 235.1625 a 4.3094833,4.3094833 0 0 0 -8.61894,0 v 124.97501 a 12.92846,12.92846 0 0 1 -25.85692,0 V 249.9038 h -0.0285 l -9.70497,-4.33534 -37.69932,84.40266 a 263.31517,263.31517 0 0 1 -33.19456,55.07808 l -0.62053,0.79007 a 2.9017188,2.9017188 0 0 1 -5.14267,-2.29839 l 0.17526,-0.98831 a 263.41573,263.41573 0 0 1 18.84395,-61.48196 l 37.6936,-84.41991 -9.71073,-4.32672 a 2.2983911,2.2983911 0 0 1 -1.14919,-3.03674 2.2983911,2.2983911 0 0 1 3.03677,-1.14921 l 13.64094,6.09075 1.04286,-2.33288 a 10.730613,10.730613 0 0 1 -3.03686,-7.49275 v -66.81136 a 34.475867,34.475867 0 0 1 34.47584,-34.47586 h 43.09485 a 34.475867,34.475867 0 0 1 34.47586,34.47586 v 2.02832 l 5.70576,2.85002 a 60.746475,60.746475 0 0 0 22.21968,6.22576 z m -60.4707,36.50706 v -54.99476 a 2.1547416,2.1547416 0 0 0 -4.30945,0 v 70.371 z m -64.64221,38.74801 V 216.8673 l -1.37042,-0.61194 -2.93907,6.58488 v 1.54855 a 10.756471,10.756471 0 0 1 -4.64851,8.8603 l -2.83849,6.35506 z"
     id="path66"
     inkscape:connector-curvature="0"
     style="fill:#fdae61;stroke:#000000;stroke-width:2.8729887px" />
</svg>
