<?xml version="1.0" encoding="UTF-8" standalone="no"?>
<svg xmlns:dc="http://purl.org/dc/elements/1.1/" xmlns:cc="http://creativecommons.org/ns#" xmlns:rdf="http://www.w3.org/1999/02/22-rdf-syntax-ns#" xmlns:svg="http://www.w3.org/2000/svg" xmlns="http://www.w3.org/2000/svg" xmlns:sodipodi="http://sodipodi.sourceforge.net/DTD/sodipodi-0.dtd" xmlns:inkscape="http://www.inkscape.org/namespaces/inkscape" id="Layer_4" data-name="Layer 4" viewBox="0 0 800 1300" version="1.1" sodipodi:docname="Fighter.svg" width="800" height="1300" inkscape:version="0.92.2 (5c3e80d, 2017-08-06)">
  <metadata id="metadata3727">
    <rdf:RDF>
      <cc:Work rdf:about="">
        <dc:format>image/svg+xml</dc:format>
        <dc:type rdf:resource="http://purl.org/dc/dcmitype/StillImage"/>
        <dc:title>Artboard 1</dc:title>
      </cc:Work>
    </rdf:RDF>
  </metadata>
  <sodipodi:namedview pagecolor="#ffffff" bordercolor="#666666" borderopacity="1" objecttolerance="10" gridtolerance="10" guidetolerance="10" inkscape:pageopacity="0" inkscape:pageshadow="2" inkscape:window-width="1918" inkscape:window-height="2054" id="namedview3725" showgrid="false" inkscape:zoom="0.9215" inkscape:cx="1000" inkscape:cy="782.96256" inkscape:window-x="1910" inkscape:window-y="0" inkscape:window-maximized="0" inkscape:current-layer="Layer_4"/>
  <defs id="defs3716">
    <style id="style3714">.cls-1{fill:#1e1b1c;}.cls-2{fill:#fff;}</style>
  </defs>
  <title id="title3718">Artboard 1</title>
  <path class="cls-1" d="m 433.61344,161.21541 a 90,90 0 1 1 -90,90 90,90 0 0 1 90,-90 z" id="path3720" inkscape:connector-curvature="0" style="fill: #FEE08B; stroke: black; stroke-width: 10px;"/>
  <path class="cls-1" d="m 313.61344,641.47541 a 38.05,38.05 0 0 1 15,6.63 v -179.39 a 7.5,7.5 0 0 0 -15,0 z m 450.48,-108.41 a 12.54,12.54 0 0 1 8.77,15.45 l -117.42,419 a 12.55,12.55 0 0 1 -2.79,5 l -114,125.68999 v 98 a 45,45 0 0 1 -90,0 V 761.21541 a 15,15 0 0 0 -30,0 v 434.99999 a 45,45 0 0 1 -90,0 V 812.52541 h -0.1 l -33.78,-15.09 -131.22,293.77999 a 916.52,916.52 0 0 1 -115.539998,191.71 l -2.16,2.75 a 10.1,10.1 0 0 1 -17.9,-8 l 0.61,-3.44 a 916.87,916.87 0 0 1 65.59,-214 l 131.199998,-293.83999 -33.8,-15.06 a 8,8 0 0 1 -4,-10.57 8,8 0 0 1 10.57,-4 l 47.48,21.2 3.63,-8.12 a 37.35,37.35 0 0 1 -10.57,-26.08 v -232.55 a 120,120 0 0 1 120,-120 h 150 a 120,120 0 0 1 120,120 v 7.06 l 19.86,9.92 a 211.44,211.44 0 0 0 77.34,21.67 z m -210.48,127.07 v -191.42 a 7.5,7.5 0 0 0 -15,0 v 244.94 z m -225,134.87 v -97.47 l -4.77,-2.13 -10.23,22.92 v 5.39 a 37.44,37.44 0 0 1 -16.18,30.84 l -9.88,22.12 z" id="path3722" inkscape:connector-curvature="0" style="fill: #FEE08B; stroke: black; stroke-width: 10px;"/>
</svg>
