<?xml version="1.0" encoding="UTF-8" standalone="no"?>
<!-- Created with Inkscape (http://www.inkscape.org/) -->

<svg
   xmlns:dc="http://purl.org/dc/elements/1.1/"
   xmlns:cc="http://creativecommons.org/ns#"
   xmlns:rdf="http://www.w3.org/1999/02/22-rdf-syntax-ns#"
   xmlns:svg="http://www.w3.org/2000/svg"
   xmlns="http://www.w3.org/2000/svg"
   xmlns:sodipodi="http://sodipodi.sourceforge.net/DTD/sodipodi-0.dtd"
   xmlns:inkscape="http://www.inkscape.org/namespaces/inkscape"
   id="svg2"
   version="1.1"
   inkscape:version="0.92.2 (5c3e80d, 2017-08-06)"
   width="800"
   height="400"
   sodipodi:docname="gravestone.svg">
  <defs
     id="defs6" />
  <sodipodi:namedview
     pagecolor="#ffffff"
     bordercolor="#666666"
     borderopacity="1"
     objecttolerance="10"
     gridtolerance="10"
     guidetolerance="10"
     inkscape:pageopacity="0"
     inkscape:pageshadow="2"
     inkscape:window-width="3840"
     inkscape:window-height="2066"
     id="namedview4"
     showgrid="false"
     fit-margin-top="0"
     fit-margin-left="0"
     fit-margin-right="0"
     fit-margin-bottom="0"
     inkscape:zoom="2.2061732"
     inkscape:cx="516.96477"
     inkscape:cy="28.480821"
     inkscape:window-x="-11"
     inkscape:window-y="-11"
     inkscape:window-maximized="1"
     inkscape:current-layer="g5696" />
  <g
     id="g5696"
     transform="matrix(1.5522205,0,0,1.6359045,-0.19402756,-699.98264)">
    <ellipse
       style="fill:#ffffff;fill-opacity:1;stroke:#000000;stroke-width:20.02165794;stroke-miterlimit:4;stroke-dasharray:none;stroke-opacity:1"
       id="path4510"
       cx="252.84927"
       cy="554.26703"
       rx="96.55616"
       ry="91.616867" />
    <path
       sodipodi:nodetypes="ccccccsssssssssssssssssssssssssccsscc"
       inkscape:connector-curvature="0"
       id="path3762"
       d="m 206.55839,604.55462 -11.38748,-7.79144 4.70911,11.55872 -6.42151,-3.51042 6.93523,8.64763 -5.90779,-2.65422 c 0,0 3.41935,6.19867 6.42151,7.62019 1.85739,0.87947 4.14024,0.43935 6.16465,0.0856 3.03386,-0.5301 5.58971,-3.62006 8.64764,-3.25356 2.26361,0.27129 3.47829,3.16214 5.65093,3.8529 1.57775,0.50163 3.37595,0.54686 4.96597,0.0856 1.24679,-0.36166 1.97764,-1.90119 3.25357,-2.1405 1.60651,-0.30132 3.21052,1.42988 4.79473,1.02744 1.53016,-0.3887 2.01827,-3.02655 3.59605,-3.08232 2.05934,-0.0728 2.987,3.10733 4.96597,3.68166 1.12677,0.32702 2.41731,0.16936 3.51042,-0.25686 1.9684,-0.7675 2.90924,-3.45533 4.96597,-3.93853 0.93726,-0.22019 1.89558,0.34986 2.82547,0.59935 1.33371,0.35782 2.58295,1.54743 3.93853,1.2843 1.8295,-0.35512 2.52146,-2.9819 4.28101,-3.59605 0.99736,-0.34812 2.13127,-0.11741 3.16794,0.0856 3.2617,0.63879 6.01575,3.7231 9.3326,3.51043 1.57989,-0.1013 2.63716,-1.94637 4.19539,-2.22613 1.70037,-0.30527 3.45709,0.28288 5.13721,0.68497 2.26481,0.54201 4.29123,2.66694 6.59275,2.31174 1.55134,-0.23942 2.20153,-2.93674 3.76729,-2.82546 1.69093,0.12017 2.09281,2.81249 3.59605,3.59604 1.59362,0.83066 3.73198,1.80459 5.30845,0.94182 1.76214,-0.96438 1.39791,-3.77642 2.31174,-5.56531 1.06661,-2.08797 3.10572,-3.72062 3.68167,-5.99341 0.38616,-1.52387 -0.0147,-3.15583 -0.25686,-4.70911 -0.43604,-2.79745 -2.14051,-8.21953 -2.14051,-8.21953 l -0.0856,8.64763 c 0,0 -2.54064,-2.87903 -3.25356,-4.62349 -0.73308,-1.79376 0.15119,-4.13644 -0.94182,-5.73655 -3.03141,-4.43779 -13.87048,-8.21953 -13.87048,-8.21953 z"
       style="fill:#000000;fill-opacity:1;stroke:#000000;stroke-width:0.21269852px;stroke-linecap:butt;stroke-linejoin:miter;stroke-opacity:1" />
    <path
       sodipodi:nodetypes="csscccccccc"
       inkscape:connector-curvature="0"
       id="path3784"
       d="m 207.02698,508.58547 c -2.75539,-1.35893 9.05368,-1.09095 9.93585,-4.11852 0.99961,-3.43062 -6.38612,-4.83067 -5.4001,-5.90564 12.10224,-13.19408 43.36321,-37.81472 82.71772,-1.88891 l 0.44265,6.78722 3.24606,4.13136 3.24606,11.36122 -0.14755,27.73908 -2.50832,6.78722 2.80342,3.24606 v 41.75617"
       style="fill:none;stroke:#000000;stroke-width:2.78635073;stroke-linecap:square;stroke-linejoin:miter;stroke-miterlimit:36;stroke-dasharray:none;stroke-opacity:1" />
    <path
       sodipodi:nodetypes="cccccsccccccccccccc"
       inkscape:connector-curvature="0"
       id="path2987"
       d="m 205.27409,611.66109 -2.05488,-66.78373 6.76399,-1.02744 -5.99341,-3.68167 0.0856,-21.2338 c 0,0 1.64626,-4.58136 1.88843,-4.82353 0.24217,-0.24217 -0.30271,-5.44884 -0.30271,-5.44884 l 7.56782,-0.66596 -2.66387,-8.41543 c 36.47982,-36.46487 69.15595,-17.03627 82.94336,-1.81627 l 0.24217,5.99371 3.63256,3.63256 3.39038,11.20038 -0.30271,27.8496 -2.54279,6.90185 2.90605,2.84551 -0.36326,50.06873 -6.35697,6.35697 z"
       style="fill:#a5a5a5;fill-opacity:1;stroke:#000000;stroke-width:1.27619112;stroke-linecap:butt;stroke-linejoin:bevel;stroke-miterlimit:4;stroke-dasharray:none;stroke-opacity:1" />
    <path
       sodipodi:nodetypes="cccccccc"
       inkscape:connector-curvature="0"
       id="path3757"
       d="m 265.95554,481.50369 18.08911,16.7963 2.22612,6.16465 5.82217,13.52799 0.51372,30.9945 -2.37128,5.18257 2.73985,4.62349 0.17124,53.76947"
       style="fill:none;stroke:#000000;stroke-width:2.78635073;stroke-linecap:butt;stroke-linejoin:miter;stroke-miterlimit:4;stroke-dasharray:none;stroke-opacity:1" />
    <path
       sodipodi:nodetypes="ccsscsccsccccscscscsccccccscccc"
       inkscape:connector-curvature="0"
       id="path3760"
       d="m 262.23816,479.85705 c 0,0 -2.82668,5.43371 -6.10569,6.96983 -4.99141,1.0224 -11.07527,0.29098 -16.95279,0.51373 -2.17947,0.0826 -5.265,-0.28239 -7.27772,0.8562 -2.17765,1.23189 -3.68166,5.65093 -3.68166,5.65093 0,0 3.06452,-4.01878 5.30844,-4.88035 2.61122,-1.0026 8.39078,0.0856 8.39078,0.0856 l -5.82217,6.50713 c 0,0 -3.00067,4.66648 -3.93853,4.88035 -1.49432,0.34077 -6.40942,-0.50285 -8.21953,-0.59934 -2.02416,0.97376 -4.28101,2.73984 -4.28101,2.73984 l 5.65093,-1.36992 3.59605,1.19869 c 0,0 -3.37344,3.14447 -4.45225,5.13721 -0.98918,1.82717 -1.7124,5.99341 -1.7124,5.99341 0,0 1.84032,-4.23188 3.08232,-6.16466 1.2289,-1.91238 4.28101,-5.30845 4.28101,-5.30845 0,0 2.15541,0.11522 3.08233,-0.34248 1.70132,-0.84008 3.93852,-4.10977 3.93852,-4.10977 0,0 0.30529,4.2715 1.19869,6.16466 1.26322,2.67682 5.65093,6.84961 5.65093,6.84961 l 1.02744,4.62349 0.17124,-6.33589 3.93853,0.17124 -7.02086,-2.56861 c -2.56234,-2.41261 -3.42738,-6.3811 -3.25356,-11.30186 0,0 4.13463,-1.47617 5.30845,-3.51043 0.40041,-0.69392 0.8562,-1.96926 0.8562,-1.96926 0,0 9.23748,-0.0868 12.67178,-1.02744 2.66372,-1.88242 8.91244,-7.85155 8.91244,-7.85155 z"
       style="fill:#000000;fill-opacity:1;stroke:#000000;stroke-width:0.21269852px;stroke-linecap:butt;stroke-linejoin:miter;stroke-opacity:1" />
    <path
       inkscape:connector-curvature="0"
       id="path3776"
       d="m 206.93186,611.9814 c 0.22132,-0.36887 4.2789,-9.81197 4.2789,-9.81197 l 0.88529,5.16419 2.5821,-1.9919 0.44264,6.71345 z"
       style="fill:#000000;fill-opacity:1;stroke:#000000;stroke-width:0.21269852px;stroke-linecap:butt;stroke-linejoin:miter;stroke-opacity:1" />
    <path
       inkscape:connector-curvature="0"
       id="path3778"
       d="m 244.04025,611.90762 c 0.22133,-0.66396 2.36078,-8.77912 2.36078,-8.77912 l 1.91813,9.44309 z"
       style="fill:#000000;fill-opacity:1;stroke:#000000;stroke-width:0.21269852px;stroke-linecap:butt;stroke-linejoin:miter;stroke-opacity:1" />
    <path
       sodipodi:nodetypes="cccccccccc"
       inkscape:connector-curvature="0"
       id="path3780"
       d="m 259.8972,612.01195 8.66049,-13.65091 1.4113,10.92127 4.43041,-5.07993 1.84065,4.20666 2.65433,0.6664 7.92185,0.82328 5.58152,-5.63395 0.69325,8.50283 z"
       style="fill:#000000;fill-opacity:1;stroke:#000000;stroke-width:0.21269852px;stroke-linecap:butt;stroke-linejoin:miter;stroke-opacity:1" />
    <path
       sodipodi:nodetypes="cccc"
       inkscape:connector-curvature="0"
       id="path3782"
       d="m 228.91655,613.23556 2.22986,-14.17333 3.96717,13.28804 z"
       style="fill:#000000;fill-opacity:1;stroke:#000000;stroke-width:0.21269852px;stroke-linecap:butt;stroke-linejoin:miter;stroke-opacity:1" />
    <path
       style="fill:none;stroke:#000000;stroke-width:20.02165794;stroke-linecap:butt;stroke-linejoin:miter;stroke-miterlimit:4;stroke-dasharray:none;stroke-opacity:1"
       d="m 178.58678,495.24539 145.91778,118.6526 1.28421,0.60926"
       id="path4522"
       inkscape:connector-curvature="0" />
  </g>
  <metadata
     id="metadata17">
    <rdf:RDF>
      <cc:Work>
        <dc:format>image/svg+xml</dc:format>
        <dc:type
           rdf:resource="http://purl.org/dc/dcmitype/StillImage" />
        <cc:license
           rdf:resource="http://creativecommons.org/publicdomain/zero/1.0/" />
        <dc:publisher>
          <cc:Agent
             rdf:about="http://openclipart.org/">
            <dc:title>Open Clip Art Library</dc:title>
          </cc:Agent>
        </dc:publisher>
        <dc:title></dc:title>
        <dc:date>2012-07-30T13:03:10</dc:date>
        <dc:description>Tombstone RIP - Pierre tombale RIP</dc:description>
        <dc:source>http://openclipart.org/detail/171351/rip-by-cyberscooty-171351</dc:source>
        <dc:creator>
          <cc:Agent>
            <dc:title>cyberscooty</dc:title>
          </cc:Agent>
        </dc:creator>
        <dc:subject>
          <rdf:Bag>
            <rdf:li>RIP</rdf:li>
            <rdf:li>Rest in Peace</rdf:li>
            <rdf:li>clip art</rdf:li>
            <rdf:li>clipart</rdf:li>
            <rdf:li>dead</rdf:li>
            <rdf:li>death</rdf:li>
            <rdf:li>funeral</rdf:li>
            <rdf:li>funéraire</rdf:li>
            <rdf:li>halloween</rdf:li>
            <rdf:li>mort</rdf:li>
            <rdf:li>pierre</rdf:li>
            <rdf:li>pierre tombale</rdf:li>
            <rdf:li>religion</rdf:li>
            <rdf:li>tombal</rdf:li>
            <rdf:li>tombstone</rdf:li>
          </rdf:Bag>
        </dc:subject>
      </cc:Work>
      <cc:License
         rdf:about="http://creativecommons.org/publicdomain/zero/1.0/">
        <cc:permits
           rdf:resource="http://creativecommons.org/ns#Reproduction" />
        <cc:permits
           rdf:resource="http://creativecommons.org/ns#Distribution" />
        <cc:permits
           rdf:resource="http://creativecommons.org/ns#DerivativeWorks" />
      </cc:License>
    </rdf:RDF>
  </metadata>
</svg>
