<?xml version="1.0" encoding="UTF-8" standalone="no"?>
<!-- Generator: Adobe Illustrator 19.0.0, SVG Export Plug-In . SVG Version: 6.00 Build 0)  -->

<svg
   xmlns:dc="http://purl.org/dc/elements/1.1/"
   xmlns:cc="http://creativecommons.org/ns#"
   xmlns:rdf="http://www.w3.org/1999/02/22-rdf-syntax-ns#"
   xmlns:svg="http://www.w3.org/2000/svg"
   xmlns="http://www.w3.org/2000/svg"
   xmlns:sodipodi="http://sodipodi.sourceforge.net/DTD/sodipodi-0.dtd"
   xmlns:inkscape="http://www.inkscape.org/namespaces/inkscape"
   version="1.1"
   id="Layer_1"
   x="0px"
   y="0px"
   viewBox="0 0 800 1300"
   xml:space="preserve"
   sodipodi:docname="Person.svg"
   width="800"
   height="1300"
   inkscape:version="0.92.2 (5c3e80d, 2017-08-06)"><metadata
     id="metadata3765"><rdf:RDF><cc:Work
         rdf:about=""><dc:format>image/svg+xml</dc:format><dc:type
           rdf:resource="http://purl.org/dc/dcmitype/StillImage" /><dc:title></dc:title></cc:Work></rdf:RDF></metadata><defs
     id="defs3763"><style
       id="style3714">.cls-1{fill:#1e1b1c;}.cls-2{fill:#fff;}</style></defs><sodipodi:namedview
     pagecolor="#ffffff"
     bordercolor="#666666"
     borderopacity="1"
     objecttolerance="10"
     gridtolerance="10"
     guidetolerance="10"
     inkscape:pageopacity="0"
     inkscape:pageshadow="2"
     inkscape:window-width="1918"
     inkscape:window-height="2054"
     id="namedview3761"
     showgrid="false"
     inkscape:zoom="0.4609375"
     inkscape:cx="256"
     inkscape:cy="256"
     inkscape:window-x="-10"
     inkscape:window-y="0"
     inkscape:window-maximized="0"
     inkscape:current-layer="Layer_1" /><g
     id="g3752"
     transform="matrix(2.3260168,0,0,2.3260168,175.05117,101.42106)"><g
       id="g3750"><path
         d="m 146.645,109.31 c -54.918,0 -55.673,0 -101.357,0 -24.466,0 -44.468,19.904 -44.591,44.367 L 0,292.109 c -0.052,10.407 8.342,18.885 18.747,18.938 0.032,0 0.065,0 0.098,0 10.363,0 18.787,-8.375 18.841,-18.747 l 0.696,-138.432 c 0,-0.016 0,-0.031 0,-0.047 0.024,-2.055 1.704,-3.706 3.759,-3.694 2.055,0.012 3.715,1.683 3.715,3.738 l 0.008,316.757 c 0,12.488 10.124,22.612 22.612,22.612 12.488,0 22.612,-10.124 22.612,-22.612 V 289.888 h 9.763 v 180.734 c 0,12.488 10.123,22.611 22.611,22.611 12.488,0 22.611,-10.123 22.611,-22.611 0,-298.894 -0.4,-127.966 -0.41,-316.481 0,-2.121 1.674,-3.863 3.794,-3.946 2.12,-0.083 3.928,1.521 4.092,3.635 0,10e-4 0,0.002 0,0.002 l -0.128,138.354 c -0.01,10.406 8.419,18.851 18.825,18.861 0.007,0 0.011,0 0.018,0 10.397,0 18.833,-8.426 18.842,-18.825 l 0.128,-138.431 c 0.002,-0.039 0.002,-0.075 0.001,-0.114 -0.123,-24.463 -20.126,-44.367 -44.59,-44.367 z"
         id="path3748"
         inkscape:connector-curvature="0" /></g></g><g
     id="g3758"
     transform="matrix(2.3260168,0,0,2.3260168,175.05117,101.42106)"><g
       id="g3756"><circle
         cx="95.966003"
         cy="57.813"
         r="39.047001"
         id="circle3754" /></g></g></svg>