<?xml version="1.0" encoding="UTF-8" standalone="no"?>
<!-- Created with Inkscape (http://www.inkscape.org/) -->

<svg
   xmlns:dc="http://purl.org/dc/elements/1.1/"
   xmlns:cc="http://creativecommons.org/ns#"
   xmlns:rdf="http://www.w3.org/1999/02/22-rdf-syntax-ns#"
   xmlns:svg="http://www.w3.org/2000/svg"
   xmlns="http://www.w3.org/2000/svg"
   xmlns:sodipodi="http://sodipodi.sourceforge.net/DTD/sodipodi-0.dtd"
   xmlns:inkscape="http://www.inkscape.org/namespaces/inkscape"
   width="210mm"
   height="297mm"
   viewBox="0 0 210 297"
   version="1.1"
   id="svg8"
   inkscape:version="0.92.2 (5c3e80d, 2017-08-06)"
   sodipodi:docname="scroll_2.svg">
  <defs
     id="defs2" />
  <sodipodi:namedview
     id="base"
     pagecolor="#ffffff"
     bordercolor="#666666"
     borderopacity="1.0"
     inkscape:pageopacity="0.0"
     inkscape:pageshadow="2"
     inkscape:zoom="1.4"
     inkscape:cx="388.40898"
     inkscape:cy="530.35203"
     inkscape:document-units="mm"
     inkscape:current-layer="layer1"
     showgrid="false"
     inkscape:window-width="3840"
     inkscape:window-height="2066"
     inkscape:window-x="-11"
     inkscape:window-y="-11"
     inkscape:window-maximized="1" />
  <metadata
     id="metadata5">
    <rdf:RDF>
      <cc:Work
         rdf:about="">
        <dc:format>image/svg+xml</dc:format>
        <dc:type
           rdf:resource="http://purl.org/dc/dcmitype/StillImage" />
        <dc:title></dc:title>
      </cc:Work>
    </rdf:RDF>
  </metadata>
  <g
     inkscape:label="Layer 1"
     inkscape:groupmode="layer"
     id="layer1">
    <path
       style="fill:#efeee7;fill-opacity:1;stroke:#000000;stroke-width:0.73982215;stroke-opacity:1"
       d="m 15.157524,293.25837 c -0.15057,-1.56324 -0.276521,-4.50772 -0.279899,-6.54334 l -0.0061,-3.70111 -5.2128436,0.15103 c -2.8670675,0.083 -5.7240969,0.54406 -6.3489594,1.02447 -1.5254817,1.17282 -2.2868893,-1.55882 -2.1089992,-7.56633 0.1224773,-4.13639 0.2919686,-4.7611 1.3864124,-5.11006 0.6857858,-0.21867 1.5204204,0.23372 1.8547439,1.00529 0.4545254,1.04897 1.519454,1.03222 4.2214024,-0.0664 2.5769235,-1.0478 3.9093945,-1.09443 4.6448815,-0.16256 1.286397,1.62986 1.563531,0.88448 1.563531,-4.20522 0,-5.98523 0.729966,-10.36117 1.728385,-10.36117 0.606034,0 0.939591,1.10216 1.120114,3.70111 l 0.514152,7.40222 c 0.394264,5.67614 1.802903,4.98255 2.399799,-1.18161 0.260049,-2.6855 0.653058,-5.19249 0.873358,-5.57111 0.220305,-0.3786 0.539777,-3.87185 0.709942,-7.76273 0.459471,-10.50585 1.207577,-13.85973 3.091499,-13.85973 0.847768,0 1.541395,-0.55516 1.541395,-1.23371 0,-0.67852 -0.677392,-1.2337 -1.505322,-1.2337 -0.970908,0 -1.602069,-0.70109 -1.777841,-1.97485 -0.149891,-1.08618 -0.04506,-9.83005 0.23296,-19.43084 0.509792,-17.60463 0.250677,-123.790571 -0.33499,-137.279967 -0.234742,-5.406625 -0.137897,-6.703264 0.668021,-8.94435 1.157638,-3.21914 1.160124,-3.408768 0.05525,-4.212221 -0.813851,-0.591828 -0.887306,-1.682792 -0.887306,-13.17888 0,-13.922183 -0.391782,-17.30624 -2.003597,-17.30624 -0.823135,0 -1.149608,-0.818988 -1.352408,-3.392685 -0.435342,-5.524843 -0.586949,-6.476942 -1.031354,-6.476942 -0.232282,0 -0.538013,1.665499 -0.679406,3.701111 l -0.514152,7.40222 c -0.180523,2.598954 -0.51408,3.70111 -1.120115,3.70111 -0.998418,0 -1.728384,-4.37593 -1.728384,-10.361176 0,-5.170619 -0.241425,-5.74465 -1.786262,-4.247108 -0.864117,0.837683 -2.341597,0.775513 -4.645056,-0.19544 C 5.8961495,24.714988 4.9109084,24.713441 4.4482603,25.781105 4.1104299,26.560767 3.2729287,27.019767 2.5871483,26.801103 1.4678157,26.444199 1.3264603,25.875317 1.205243,21.23959 1.0357136,14.756318 2.1760911,12.324472 4.260169,14.724986 c 0.8980017,1.034355 2.1923351,1.172853 4.2853663,0.458549 1.6493217,-0.562873 3.1984097,-0.92315 3.4424197,-0.800615 0.24401,0.122532 0.992675,0.582564 1.663703,1.022285 1.145552,0.750699 1.220413,0.545921 1.226103,-3.353844 0.01102,-7.5646229 0.429631,-9.8778808 1.712389,-9.4629829 1.020767,0.330159 1.195204,1.0873085 1.464227,6.3554987 0.167971,3.2893782 0.405704,6.2595952 0.52829,6.6004802 0.374414,1.041155 1.169223,-0.893234 1.169223,-2.845615 0,-1.011456 0.304597,-3.4769419 0.676877,-5.4788562 L 21.105585,3.5801135 137.65304,1.8847353 c 12.01094,-0.1747192 28.62645,0.5124248 36.92276,0.9252775 l 15.08423,0.7506415 0.22182,4.9228683 c 0.15317,3.3990164 0.46216,5.0500404 0.99822,5.3336984 0.64171,0.339559 0.77757,-0.51449 0.78319,-4.922867 0.008,-6.2857859 0.32258,-7.8619424 1.61323,-8.08289867 1.05314,-0.18029636 1.46941,2.45596987 1.4795,9.36996367 0.005,3.899765 0.0806,4.104543 1.22609,3.353865 0.67104,-0.439722 1.4197,-0.899749 1.66371,-1.022285 0.24402,-0.12253 1.7931,0.237742 3.44242,0.800617 2.09303,0.714301 3.38737,0.575803 4.28536,-0.458551 2.08408,-2.400514 3.22445,0.03134 3.05493,6.514604 -0.11457,4.381594 -0.29629,5.227325 -1.19946,5.582301 -0.58543,0.230098 -1.50451,-0.236592 -2.0424,-1.037086 -0.74676,-1.111346 -1.77491,-1.119517 -4.34884,-0.03456 -2.47311,1.042465 -3.61535,1.057049 -4.28883,0.05475 -1.26223,-1.878487 -1.78693,-0.618193 -1.78693,4.292137 0,6.049385 -0.72348,10.493984 -1.70817,10.493984 -0.88161,0 -1.39741,-4.155302 -1.39741,-11.257544 0,-2.724427 -0.20575,-3.546896 -0.88729,-3.546896 -0.51735,0 -0.88732,0.822469 -0.88732,1.972531 0,1.084893 -0.27888,3.721936 -0.61974,5.860091 -0.68393,4.290219 -1.56269,53.142697 -1.83425,101.970383 -0.0849,15.26519 -0.16641,28.44886 -0.18114,29.29704 -0.0147,0.84818 -0.46028,1.54214 -0.99008,1.54214 -2.82135,0 -3.12728,9.22805 -0.43644,13.16499 l 1.62156,2.37248 0.22183,38.39394 c 0.122,21.11666 0.32165,38.60465 0.44365,38.86219 0.122,0.25752 0.77085,1.12394 1.44187,1.9253 1.04184,1.24424 1.22006,2.18173 1.22006,6.41832 0,2.72869 0.19963,4.96127 0.44363,4.96127 0.24402,0 0.44366,-1.59611 0.44366,-3.54691 0,-7.10225 0.5158,-11.25754 1.39741,-11.25754 0.97704,0 1.70817,4.43474 1.70817,10.36118 0,5.08968 0.27714,5.83505 1.56353,4.20517 0.73549,-0.93188 2.06796,-0.88523 4.64489,0.16256 2.70195,1.09862 3.76688,1.11537 4.2214,0.0664 0.33432,-0.77157 1.16896,-1.22395 1.85473,-1.00529 1.09446,0.34896 1.26394,0.97367 1.38642,5.11006 0.17789,6.00751 -0.58351,8.73915 -2.10899,7.56634 -0.62488,-0.48041 -3.48189,-0.94143 -6.34896,-1.02448 l -5.21284,-0.15098 -0.007,3.70111 c -0.0109,6.46502 -0.44699,9.09449 -1.47958,8.91771 -1.28691,-0.22031 -1.6052,-1.79719 -1.61323,-7.99243 -0.004,-2.88379 -0.20645,-5.24325 -0.45047,-5.24325 -0.244,0 -0.44365,1.2644 -0.44365,2.80976 0,1.54536 -0.31078,4.04362 -0.69063,5.55168 l -0.69065,2.7419 h -36.52155 c -39.83058,0 -131.94721,2.36467 -132.501447,-5.34136 -0.191681,-2.66511 -0.535798,-3.89195 -1.091665,-3.89195 -0.768562,0 -1.017063,1.91629 -1.439859,11.10332 -0.04685,1.01782 -0.606381,2.01922 -1.243427,2.22537 -0.893484,0.28913 -1.220847,-0.27492 -1.432024,-2.4674 z m 2.143259,-6.85176 c 0.206568,-3.48505 0.148934,-5.24323 -0.171869,-5.24323 -0.611962,0 -0.632552,-5.25819 -0.0272,-6.9416 0.31152,-0.86625 0.287608,-3.38114 -0.07566,-7.95739 -0.461089,-5.8085 -0.573826,-6.2841 -0.854897,-3.60657 -0.504428,4.80521 -0.476036,10.12493 0.04919,9.22222 0.288531,-0.49588 0.381228,0.28582 0.247386,2.08616 -0.601168,8.08643 -0.721083,12.54623 -0.446701,16.61333 0.353272,5.23653 0.810321,3.74615 1.279707,-4.17292 z M 193.22967,268.91184 c -0.17255,-4.48072 -0.4973,-7.83131 -0.72165,-7.44574 -0.55365,0.95154 -0.52117,10.42504 0.0358,10.42504 0.24401,0 0.44366,1.94308 0.44366,4.31796 0,2.37488 -0.19965,4.31796 -0.44366,4.31796 -0.51834,0 -0.59247,6.18192 -0.11342,9.4603 0.55109,3.77157 1.14906,-11.99438 0.79932,-21.07552 z m 0.50448,18.78612 c -0.14162,-0.98416 -0.24676,-0.69183 -0.26804,0.74537 -0.0192,1.30053 0.0856,2.02918 0.23301,1.61923 0.14742,-0.40995 0.16319,-1.47402 0.035,-2.3646 z m 0.45437,-13.63346 c -0.1061,-1.53462 -0.19698,-0.56955 -0.20191,2.1446 -0.004,2.71414 0.0819,3.96976 0.19295,2.79021 0.11104,-1.17953 0.11507,-3.40019 0.009,-4.93481 z m -180.093266,5.72751 c 1.18447,-0.18662 1.663699,-0.82646 1.663694,-2.22122 -6e-6,-1.70538 -0.890536,-1.95909 -6.8766303,-1.95909 -5.9776458,0 -6.8766245,0.25537 -6.8766245,1.95337 5.4e-6,1.07435 0.083053,2.18469 0.1845463,2.46741 0.1748387,0.48703 8.3337765,0.32222 11.9050145,-0.24047 z m 193.437706,-3.59552 c 0.12067,-2.33615 -0.12593,-2.45022 -5.10201,-2.36046 -6.301,0.11376 -6.14627,0.0423 -5.41342,2.49778 0.48938,1.63977 1.19566,1.84419 4.15811,1.20346 2.17872,-0.4712 3.8278,-0.28011 4.23409,0.4906 0.97401,1.84766 1.97792,0.98176 2.12323,-1.83138 z m -186.893813,1.63588 c 0,-1.04865 -0.614292,-1.60381 -1.774616,-1.60381 -1.585863,0 -2.164608,0.97169 -1.567576,2.6319 0.491798,1.36757 3.342192,0.49077 3.342192,-1.02809 z M 192.1364,276.82595 c 0.22406,0 0.40737,-0.55516 0.40737,-1.23371 0,-0.67853 -0.49911,-1.23369 -1.10914,-1.23369 -0.72295,0 -1.10912,0.69029 -1.10912,1.98254 0,1.30097 0.24125,1.72511 0.70176,1.23371 0.38596,-0.41188 0.88508,-0.74885 1.10913,-0.74885 z m 3.87213,-0.92528 c -0.18008,-2.60045 -0.96746,-2.43648 -1.1681,0.24326 -0.0837,1.11772 0.16086,1.91572 0.58709,1.91572 0.45696,0 0.67455,-0.80856 0.58101,-2.15898 z m -2.28362,-14.18758 c -0.12308,-0.84818 -0.22379,-0.15422 -0.22379,1.54213 0,1.69634 0.10067,2.39029 0.22379,1.54213 0.12307,-0.84818 0.12307,-2.2361 0,-3.08426 z M 17.064966,31.741398 c 0.336663,-4.365292 0.348282,-6.782693 0.03675,-7.64896 -0.605365,-1.683396 -0.58477,-6.941587 0.0272,-6.941587 0.512425,0 0.160326,-8.9564408 -0.481021,-12.2357844 -0.570611,-2.9176697 -0.923048,7.1990604 -0.520873,14.9517874 0.200689,3.868681 0.199978,6.750542 -0.0016,6.404134 -0.201551,-0.346408 -0.366465,0.44387 -0.366465,1.756171 0,2.788872 0.495192,10.096649 0.684174,10.096649 0.07128,0 0.351111,-2.872083 0.621839,-6.38241 z M 193.2228,10.889693 c -0.21541,-5.59365 -0.44995,-7.7567942 -0.71485,-6.5932749 -0.53922,2.3683984 -0.5121,9.7507159 0.0358,9.7507159 0.24401,0 0.44365,1.943081 0.44365,4.317961 0,2.374879 -0.19964,4.317962 -0.44365,4.317962 -0.51251,0 -0.6084,8.991717 -0.11092,10.400974 0.58193,1.648481 1.12288,-13.549634 0.78995,-22.194338 z m 0.50211,18.887158 c -0.12308,-0.848172 -0.22379,-0.154213 -0.22379,1.542129 0,1.696342 0.10067,2.390301 0.22379,1.542129 0.12307,-0.848171 0.12307,-2.236087 0,-3.084258 z M 3.452893,22.284276 c -0.058072,-0.738935 0.1415729,-1.082486 0.4436556,-0.763448 0.3020828,0.319039 3.094708,0.7376 6.2058284,0.930139 5.008285,0.309948 5.656582,0.117127 5.656582,-1.682423 0,-1.57953 -0.603412,-2.207872 -2.707573,-2.819446 -1.489164,-0.432824 -2.856334,-0.531294 -3.038149,-0.218822 -0.5594119,0.961415 -5.5200096,1.058198 -6.573663,0.128257 -1.1019957,-0.972606 -1.7336883,1.508738 -1.2592813,4.946576 0.2941677,2.131699 1.4440831,1.661076 1.2726003,-0.520833 z M 194.18852,16.220497 c -0.1061,-1.534618 -0.19698,-0.569549 -0.20191,2.144598 -0.004,2.714148 0.0819,3.969745 0.19295,2.790215 0.11104,-1.179527 0.11507,-3.400193 0.009,-4.934813 z m 13.21766,2.658642 c 0,-2.273438 -0.21072,-2.899912 -0.88732,-2.638086 -0.81115,0.313894 -3.8789,0.243238 -7.72171,-0.177843 -1.78001,-0.195047 -2.35694,2.446602 -0.85468,3.913493 0.56885,0.555464 2.66493,0.697671 4.65795,0.316015 1.993,-0.381656 3.61642,-0.416336 3.6076,-0.07708 -0.0504,1.93709 0.15165,2.614966 0.64358,2.158982 0.30502,-0.282725 0.55458,-1.855697 0.55458,-3.495493 z M 196.093,18.292284 c 0,-0.97776 -0.29946,-1.777744 -0.66548,-1.777744 -0.66824,0 -0.91201,2.604336 -0.38177,4.078804 0.41404,1.151344 1.04725,-0.239979 1.04725,-2.30106 z M 19.751836,20.153196 c 0,-1.369563 -0.345432,-1.818787 -1.185832,-1.542129 -1.727201,0.568581 -1.879502,3.474623 -0.182098,3.474623 0.945949,0 1.36793,-0.59614 1.36793,-1.9325 z M 192.1277,18.365121 c 0,-0.678537 -0.50532,-1.409371 -1.12292,-1.624075 -0.80031,-0.278218 -1.12293,0.188382 -1.12293,1.624075 0,1.435693 0.32262,1.902292 1.12293,1.624074 0.6176,-0.214704 1.12292,-0.945538 1.12292,-1.624074 z m 1.60645,-13.1852054 c -0.14162,-0.9841655 -0.24676,-0.6918315 -0.26804,0.7453625 -0.0192,1.3005289 0.0856,2.0291851 0.23301,1.6192357 0.14742,-0.4099493 0.16319,-1.4740185 0.035,-2.3645982 z"
       id="path4526"
       inkscape:connector-curvature="0"
       sodipodi:nodetypes="cccccscccsssssscssssssssssssssssscscssssccssscsscssccccscccsccscccssssscscsscsscsssssccccsscccccssccssscccccscsscssccccsssccccccccccccsssccccccccsscssssscsccsccsccccssscssccccsssccccsccsssssssssccscccscsccccssssccsccscscscccc" />
  </g>
</svg>
