<?xml version="1.0" encoding="UTF-8" standalone="no"?>
<svg xmlns:dc="http://purl.org/dc/elements/1.1/" xmlns:cc="http://creativecommons.org/ns#" xmlns:rdf="http://www.w3.org/1999/02/22-rdf-syntax-ns#" xmlns:svg="http://www.w3.org/2000/svg" xmlns="http://www.w3.org/2000/svg" xmlns:sodipodi="http://sodipodi.sourceforge.net/DTD/sodipodi-0.dtd" xmlns:inkscape="http://www.inkscape.org/namespaces/inkscape" id="Layer_4" data-name="Layer 4" viewBox="0 0 800 1300" version="1.1" sodipodi:docname="Wizard.svg" width="800" height="1300" inkscape:version="0.92.2 (5c3e80d, 2017-08-06)">
  <metadata id="metadata3808">
    <rdf:RDF>
      <cc:Work rdf:about="">
        <dc:format>image/svg+xml</dc:format>
        <dc:type rdf:resource="http://purl.org/dc/dcmitype/StillImage"/>
        <dc:title>Artboard 1</dc:title>
      </cc:Work>
    </rdf:RDF>
  </metadata>
  <sodipodi:namedview pagecolor="#ffffff" bordercolor="#666666" borderopacity="1" objecttolerance="10" gridtolerance="10" guidetolerance="10" inkscape:pageopacity="0" inkscape:pageshadow="2" inkscape:window-width="1918" inkscape:window-height="2054" id="namedview3806" showgrid="false" inkscape:zoom="0.472" inkscape:cx="578.82976" inkscape:cy="502.67887" inkscape:window-x="-10" inkscape:window-y="0" inkscape:window-maximized="0" inkscape:current-layer="Layer_4"/>
  <defs id="defs3797">
    <style id="style3795">.cls-1{fill:#1e1b1c;}.cls-2{fill:#fff;}</style>
  </defs>
  <title id="title3799">Artboard 1</title>
  <path class="cls-1" d="m 718.96119,275.69492 a 31.82,31.82 0 0 1 25.67,9.11 l -3.31,-31.38 z m -5,54.64 c 8,2.85 20.2,2.26 28.17,-8.76 a 24.53,24.53 0 0 0 4.54,-17 24.11,24.11 0 0 0 -16.24,-20.61 25.2,25.2 0 0 0 -8.46,-1.49 24.08,24.08 0 0 0 -17.09,7.22 24.57,24.57 0 0 0 -7.21,16 c -0.76,13.61 8.33,21.75 16.33,24.59 z m -19.46,57 35.87,-49.55 a 31,31 0 0 1 -7.82,1 32.67,32.67 0 0 1 -10.93,-1.92 31.57,31.57 0 0 1 -15.07,-11.17 l -3.42,61.1 0.71,0.25 z m 53,-142.13 17.65,87.49 -1.25,1.21 -60.94,72.35 v 0 l -105.33,296.56 v 44 a 37.51,37.51 0 0 1 -28.56,36.42 l -43.93,123.7 27.34,261.79008 a 32.47,32.47 0 0 1 -32.31,35.59 h -12.54 v 15 a 45,45 0 0 1 -90,0 v -9.62 l -15.86,44.66 a 15,15 0 0 1 -28.77,-1.81 45,45 0 0 1 -75.37,-33.2 v -15 h -6 a 32.46,32.46 0 0 1 -32.31,-35.59 l 38.26,-429.41008 v -247.51 a 7.5,7.5 0 0 0 -15,0 v 255 a 37.5,37.5 0 0 1 -75,0 v -232.5 a 120,120 0 0 1 120,-120 h 150 a 120,120 0 0 1 120,120 v 98.83 l 77,-217 v 0 l -1.66,-94.58 -0.21,-1.72 68.86,-56.74 5.07,-5 z m 10,85.07 -2.85,-14.09 -40.08,55.38 z m -70,31.67 3.84,-68.25 -11.07,9.13 z m -169.6,475.75 21.23,-59.78 a 37.44,37.44 0 0 1 -16.5,-31.07 v -255 a 7.5,7.5 0 0 0 -15,0 v 247.5 z m -130.27,366.82008 0.07,-0.18 h -0.07 z" id="path3801" inkscape:connector-curvature="0" style="fill: #5E4FA2; stroke: black; stroke-width: 10px;"/>
  <path class="cls-1" d="m 515.37119,251.61492 a 7.75,7.75 0 0 1 -7.26,7.72 l -16.43,1.9 a 91.19,91.19 0 0 1 0.95,13.1 90,90 0 0 1 -179.68,7.55 l -9.75,1.13 c -0.41,0 -0.82,0 -1.22,0 a 19.36,19.36 0 1 1 0.92,-38.7 h 9.73 l 16.36,-53.17 a 278.52,278.52 0 0 1 102.36,-138.570004 l 24.38,-17.42 a 4.36,4.36 0 0 1 6.9,3.55 v 72.500004 a 9,9 0 0 1 -9,9 h -36 l 40.49,13.49 a 9,9 0 0 1 5.82,6.08 l 28.58,104.11 h 15.11 a 7.74,7.74 0 0 1 7.74,7.73 z" id="path3803" inkscape:connector-curvature="0" style="fill: #5E4FA2; stroke: black; stroke-width: 10px;"/>
</svg>
